<svg width="24" height="24" viewBox="0 0 24 24" fill="none" xmlns="http://www.w3.org/2000/svg">
<g clip-path="url(#clip0_17_4)">
<path d="M21.1797 0.25H2.8203C1.40077 0.25 0.25 1.40077 0.25 2.8203V21.1797C0.25 22.5992 1.40077 23.75 2.8203 23.75H21.1797C22.5992 23.75 23.75 22.5992 23.75 21.1797V2.8203C23.75 1.40077 22.5992 0.25 21.1797 0.25Z" fill="#40A14E"/>
<path d="M17.3588 8.89702V14.9764C17.3588 17.0711 17.2056 18.0758 16.7458 18.9444C16.32 19.779 15.758 20.3067 14.6 20.8858L12.1648 19.7278C13.3228 19.1829 13.8847 18.7062 14.2423 17.9736C14.617 17.2244 14.7364 16.3558 14.7364 14.0739V8.89702H17.3588ZM13.1868 4.84705V16.9861C11.8414 17.2415 10.8537 17.3437 9.78093 17.3437C6.57928 17.3437 4.9104 15.8963 4.9104 13.1204C4.9104 10.4467 6.68155 8.70982 9.42323 8.70982C9.84893 8.70982 10.1725 8.74377 10.5642 8.84595V4.84705H13.1868ZM9.67875 10.8213C8.35045 10.8213 7.58405 11.6388 7.58405 13.0692C7.58405 14.4657 8.31638 15.232 9.66173 15.232C9.9511 15.232 10.1896 15.2149 10.5642 15.164V10.9574C10.2577 10.8554 10.0023 10.8213 9.67875 10.8213ZM17.3588 4.861V7.5517H14.7364V4.861H17.3588Z" fill="#FFFFFD"/>
</g>
<defs>
<clipPath id="clip0_17_4">
<rect width="24" height="24" fill="white"/>
</clipPath>
</defs>
</svg>
